<svg width="72" height="18" fill="none" xmlns="http://www.w3.org/2000/svg"><path d="M18.92 6.26h7.29v1.36h-2.87v7.64h-1.57V7.62H18.9l.01-1.36Zm6.98 2.49h1.34V10h.02a2 2 0 0 1 .7-.97c.17-.15.36-.26.58-.34.2-.08.42-.13.63-.13l.35.01.2.02v1.38l-.32-.04a1.67 1.67 0 0 0-1.56.54c-.16.19-.29.42-.38.7-.1.27-.15.6-.15.95v3.1h-1.44l.03-6.48Zm10.41 6.51H34.9v-.9h-.03c-.18.33-.44.58-.8.78-.34.2-.7.3-1.06.3-.85 0-1.47-.2-1.86-.63-.38-.42-.57-1.07-.57-1.92V8.75h1.44v4c0 .57.1.98.33 1.2.22.25.53.37.93.37.3 0 .55-.05.75-.15.2-.1.37-.21.5-.37s.2-.35.27-.56c.06-.22.08-.46.08-.71V8.75h1.44v6.51Zm2.45-2.08c.05.42.2.7.48.88.27.17.61.26 1 .26a3.3 3.3 0 0 0 .93-.16.84.84 0 0 0 .37-.26c.1-.12.15-.27.13-.45a.65.65 0 0 0-.2-.45 1.7 1.7 0 0 0-.48-.3c-.2-.06-.42-.12-.67-.17l-.77-.17a8.3 8.3 0 0 1-.78-.22c-.25-.08-.47-.19-.67-.34a1.5 1.5 0 0 1-.47-.56c-.12-.22-.18-.49-.18-.82 0-.36.08-.65.27-.9.16-.23.4-.42.66-.57a3 3 0 0 1 .88-.31 5.09 5.09 0 0 1 1.89.02c.3.08.59.18.83.35a2.16 2.16 0 0 1 .92 1.55h-1.5c-.07-.35-.23-.58-.47-.7a1.93 1.93 0 0 0-.85-.18l-.36.03c-.14.02-.27.05-.4.1a.94.94 0 0 0-.3.2.48.48 0 0 0-.14.35c0 .18.06.3.18.42.12.1.27.19.48.27.2.07.42.13.67.18l.78.17c.27.06.52.13.77.22a2.1 2.1 0 0 1 1.15.88c.12.22.18.5.18.8 0 .4-.08.72-.26 1-.18.26-.41.48-.69.65-.27.17-.6.29-.93.37a4.3 4.3 0 0 1-2.16-.02 2.9 2.9 0 0 1-.91-.42c-.26-.2-.46-.42-.6-.7a2.31 2.31 0 0 1-.24-1.02h1.45v.02Zm4.74-4.43h1.1V6.78h1.43v1.96h1.3V9.8h-1.3v3.48l.02.4c.02.1.05.2.09.28.05.07.12.13.2.16.1.04.22.06.39.06h.3l.3-.06v1.12a6.18 6.18 0 0 1-1.85-.04c-.23-.07-.4-.18-.54-.3a1.12 1.12 0 0 1-.27-.52 4.1 4.1 0 0 1-.08-.72V9.82h-1.1v-1.1.03Zm4.83 0h1.36v.89h.02c.2-.39.48-.65.84-.82.36-.17.75-.25 1.18-.25.52 0 .96.08 1.34.27.39.18.7.42.95.75.25.31.45.68.57 1.1a4.91 4.91 0 0 1 .02 2.62c-.12.4-.29.78-.52 1.09a2.55 2.55 0 0 1-2.12 1.04 3.66 3.66 0 0 1-1.22-.24 2.15 2.15 0 0 1-.94-.78h-.02v3.26h-1.44V8.75h-.02ZM53.36 12a2.92 2.92 0 0 0-.47-1.58 1.92 1.92 0 0 0-.56-.52c-.23-.13-.5-.19-.78-.19-.6 0-1.06.2-1.37.62-.3.42-.45.99-.45 1.68 0 .34.03.64.12.92.08.27.19.51.36.72a1.63 1.63 0 0 0 1.36.66c.33 0 .6-.08.82-.2.23-.14.4-.32.56-.52.15-.22.26-.46.32-.74.06-.28.1-.56.1-.85Zm2.53-5.75h1.44v1.36H55.9V6.26Zm0 2.49h1.44v6.51H55.9V8.75Zm2.73-2.49h1.44v9h-1.44v-9Zm5.83 9.18a3.16 3.16 0 0 1-2.42-.97c-.28-.3-.5-.67-.64-1.09a4.27 4.27 0 0 1 0-2.75 2.88 2.88 0 0 1 1.67-1.8c.4-.17.87-.26 1.4-.26.5 0 .97.08 1.38.26.41.17.75.41 1.03.71s.5.67.64 1.1a4.2 4.2 0 0 1 0 2.74 2.88 2.88 0 0 1-1.67 1.8c-.4.17-.86.26-1.39.26Zm0-1.14a1.66 1.66 0 0 0 1.4-.73c.16-.21.27-.47.34-.73a3.3 3.3 0 0 0 0-1.67 2.15 2.15 0 0 0-.34-.73 1.7 1.7 0 0 0-1.4-.72 1.66 1.66 0 0 0-1.4.72c-.16.22-.27.46-.34.73a3.27 3.27 0 0 0 0 1.67c.07.28.18.52.34.73.15.22.34.4.57.53.24.14.52.2.83.2Zm3.72-5.55h1.1V6.78h1.43v1.96H72V9.8h-1.3v3.48c0 .16.01.28.03.4 0 .1.04.2.08.28.05.07.12.13.2.16.1.04.22.06.39.06h.3l.3-.06v1.12l-.47.05c-.16.02-.3.02-.47.02a3.1 3.1 0 0 1-.9-.1c-.24-.08-.42-.19-.55-.32a1.12 1.12 0 0 1-.26-.51 4.1 4.1 0 0 1-.09-.72V9.82h-1.09v-1.1.03Z" fill="#000"/><path d="M17.24 6.26h-6.58L8.63 0 6.59 6.26H0l5.33 3.87-2.04 6.26 5.33-3.87 5.32 3.87-2.02-6.26 5.32-3.87Z" fill="#00B67A"/><path d="m12.37 11.54-.45-1.41-3.3 2.39 3.75-.98Z" fill="#005128"/></svg>